<?xml version="1.0" encoding="UTF-8" standalone="no"?>
<!DOCTYPE svg PUBLIC "-//W3C//DTD SVG 1.1//EN"
 "http://www.w3.org/Graphics/SVG/1.1/DTD/svg11.dtd">
<!-- Generated by graphviz version 2.43.0 (0)
 -->
<!-- Title: Graphical Class Hierarchy Pages: 1 -->
<svg width="536pt" height="1412pt"
 viewBox="0.00 0.00 536.00 1412.00" xmlns="http://www.w3.org/2000/svg" xmlns:xlink="http://www.w3.org/1999/xlink">
<g id="graph0" class="graph" transform="scale(1 1) rotate(0) translate(4 1408)">
<title>Graphical Class Hierarchy</title>
<!-- Node0 -->
<g id="Node000000" class="node">
<title>Node0</title>
<g id="a_Node000000"><a xlink:href="structcpstd_1_1integral__constant.html" target="_top" xlink:title=" ">
<polygon fill="white" stroke="#666666" points="134,-709.5 0,-709.5 0,-679.5 134,-679.5 134,-709.5"/>
<text text-anchor="start" x="8" y="-697.5" font-family="Helvetica,sans-Serif" font-size="10.00">cpstd::integral_constant</text>
<text text-anchor="middle" x="67" y="-686.5" font-family="Helvetica,sans-Serif" font-size="10.00">&lt; T, v &gt;</text>
</a>
</g>
</g>
<!-- Node1 -->
<g id="Node000001" class="node">
<title>Node1</title>
<g id="a_Node000001"><a xlink:href="structcpstd_1_1is__pointer__helper.html" target="_top" xlink:title=" ">
<polygon fill="white" stroke="#666666" points="328,-1404 185,-1404 185,-1363 328,-1363 328,-1404"/>
<text text-anchor="start" x="193" y="-1392" font-family="Helvetica,sans-Serif" font-size="10.00">cpstd::is_pointer_helper</text>
<text text-anchor="start" x="193" y="-1381" font-family="Helvetica,sans-Serif" font-size="10.00">&lt; cpstd::remove_cv&lt; T &gt;</text>
<text text-anchor="middle" x="256.5" y="-1370" font-family="Helvetica,sans-Serif" font-size="10.00">::type &gt;</text>
</a>
</g>
</g>
<!-- Node0&#45;&gt;Node1 -->
<g id="edge26_Node000000_Node000001" class="edge">
<title>Node0&#45;&gt;Node1</title>
<g id="a_edge26_Node000000_Node000001"><a xlink:title=" ">
<path fill="none" stroke="#63b8ff" d="M68.5,-719.51C71.15,-827.83 86.83,-1255.46 170,-1354.5 174.13,-1359.42 179.14,-1363.51 184.62,-1366.91"/>
<polygon fill="#63b8ff" stroke="#63b8ff" points="72,-719.42 68.27,-709.51 65,-719.58 72,-719.42"/>
</a>
</g>
</g>
<!-- Node3 -->
<g id="Node000003" class="node">
<title>Node3</title>
<g id="a_Node000003"><a xlink:href="structcpstd_1_1is__same.html" target="_top" xlink:title=" ">
<polygon fill="white" stroke="#666666" points="319,-1345 194,-1345 194,-1304 319,-1304 319,-1345"/>
<text text-anchor="start" x="202" y="-1333" font-family="Helvetica,sans-Serif" font-size="10.00">cpstd::is_same&lt; void,</text>
<text text-anchor="start" x="202" y="-1322" font-family="Helvetica,sans-Serif" font-size="10.00"> cpstd::remove_cv&lt; T</text>
<text text-anchor="middle" x="256.5" y="-1311" font-family="Helvetica,sans-Serif" font-size="10.00"> &gt;::type &gt;</text>
</a>
</g>
</g>
<!-- Node0&#45;&gt;Node3 -->
<g id="edge28_Node000000_Node000003" class="edge">
<title>Node0&#45;&gt;Node3</title>
<g id="a_edge28_Node000000_Node000003"><a xlink:title=" ">
<path fill="none" stroke="#63b8ff" d="M68.92,-719.54C73.16,-821.77 93.98,-1206.33 170,-1295.5 176.41,-1303.01 184.84,-1308.59 193.91,-1312.72"/>
<polygon fill="#63b8ff" stroke="#63b8ff" points="72.42,-719.37 68.52,-709.52 65.42,-719.65 72.42,-719.37"/>
</a>
</g>
</g>
<!-- Node5 -->
<g id="Node000005" class="node">
<title>Node5</title>
<g id="a_Node000005"><a xlink:href="structcpstd_1_1is__array.html" target="_top" xlink:title=" ">
<polygon fill="white" stroke="#666666" points="314.5,-1286 198.5,-1286 198.5,-1267 314.5,-1267 314.5,-1286"/>
<text text-anchor="middle" x="256.5" y="-1274" font-family="Helvetica,sans-Serif" font-size="10.00">cpstd::is_array&lt; T &gt;</text>
</a>
</g>
</g>
<!-- Node0&#45;&gt;Node5 -->
<g id="edge30_Node000000_Node000005" class="edge">
<title>Node0&#45;&gt;Node5</title>
<g id="a_edge30_Node000000_Node000005"><a xlink:title=" ">
<path fill="none" stroke="#63b8ff" d="M68.94,-719.81C73.17,-819.04 93.63,-1179.91 170,-1258.5 177.61,-1266.33 187.71,-1271.18 198.28,-1274.11"/>
<polygon fill="#63b8ff" stroke="#63b8ff" points="72.43,-719.39 68.52,-709.54 65.43,-719.67 72.43,-719.39"/>
</a>
</g>
</g>
<!-- Node6 -->
<g id="Node000006" class="node">
<title>Node6</title>
<g id="a_Node000006"><a xlink:href="structcpstd_1_1is__array_3_01T_0fN_0e_4.html" target="_top" xlink:title=" ">
<polygon fill="white" stroke="#666666" points="320.5,-1249 192.5,-1249 192.5,-1230 320.5,-1230 320.5,-1249"/>
<text text-anchor="middle" x="256.5" y="-1237" font-family="Helvetica,sans-Serif" font-size="10.00">cpstd::is_array&lt; T[N]&gt;</text>
</a>
</g>
</g>
<!-- Node0&#45;&gt;Node6 -->
<g id="edge31_Node000000_Node000006" class="edge">
<title>Node0&#45;&gt;Node6</title>
<g id="a_edge31_Node000000_Node000006"><a xlink:title=" ">
<path fill="none" stroke="#63b8ff" d="M69.29,-719.69C74.65,-814.57 98.41,-1148.73 170,-1221.5 176.17,-1227.77 183.93,-1232.13 192.25,-1235.11"/>
<polygon fill="#63b8ff" stroke="#63b8ff" points="72.77,-719.37 68.73,-709.57 65.78,-719.75 72.77,-719.37"/>
</a>
</g>
</g>
<!-- Node7 -->
<g id="Node000007" class="node">
<title>Node7</title>
<g id="a_Node000007"><a xlink:href="structcpstd_1_1is__array_3_01T_0f_0e_4.html" target="_top" xlink:title=" ">
<polygon fill="white" stroke="#666666" points="317,-1212 196,-1212 196,-1193 317,-1193 317,-1212"/>
<text text-anchor="middle" x="256.5" y="-1200" font-family="Helvetica,sans-Serif" font-size="10.00">cpstd::is_array&lt; T[]&gt;</text>
</a>
</g>
</g>
<!-- Node0&#45;&gt;Node7 -->
<g id="edge32_Node000000_Node000007" class="edge">
<title>Node0&#45;&gt;Node7</title>
<g id="a_edge32_Node000000_Node000007"><a xlink:title=" ">
<path fill="none" stroke="#63b8ff" d="M69.7,-719.96C76.31,-810.87 103.28,-1117.63 170,-1184.5 177.07,-1191.59 186.18,-1196.22 195.8,-1199.18"/>
<polygon fill="#63b8ff" stroke="#63b8ff" points="73.18,-719.47 68.98,-709.75 66.2,-719.97 73.18,-719.47"/>
</a>
</g>
</g>
<!-- Node8 -->
<g id="Node000008" class="node">
<title>Node8</title>
<g id="a_Node000008"><a xlink:href="structcpstd_1_1is__class.html" target="_top" xlink:title=" ">
<polygon fill="white" stroke="#666666" points="314.5,-1175 198.5,-1175 198.5,-1156 314.5,-1156 314.5,-1175"/>
<text text-anchor="middle" x="256.5" y="-1163" font-family="Helvetica,sans-Serif" font-size="10.00">cpstd::is_class&lt; T &gt;</text>
</a>
</g>
</g>
<!-- Node0&#45;&gt;Node8 -->
<g id="edge33_Node000000_Node000008" class="edge">
<title>Node0&#45;&gt;Node8</title>
<g id="a_edge33_Node000000_Node000008"><a xlink:title=" ">
<path fill="none" stroke="#63b8ff" d="M70.15,-719.71C78,-805.82 108,-1086.36 170,-1147.5 177.67,-1155.06 187.66,-1159.81 198.1,-1162.73"/>
<polygon fill="#63b8ff" stroke="#63b8ff" points="73.62,-719.19 69.24,-709.54 66.64,-719.81 73.62,-719.19"/>
</a>
</g>
</g>
<!-- Node9 -->
<g id="Node000009" class="node">
<title>Node9</title>
<g id="a_Node000009"><a xlink:href="structcpstd_1_1is__const.html" target="_top" xlink:title=" ">
<polygon fill="white" stroke="#666666" points="315,-1138 198,-1138 198,-1119 315,-1119 315,-1138"/>
<text text-anchor="middle" x="256.5" y="-1126" font-family="Helvetica,sans-Serif" font-size="10.00">cpstd::is_const&lt; T &gt;</text>
</a>
</g>
</g>
<!-- Node0&#45;&gt;Node9 -->
<g id="edge34_Node000000_Node000009" class="edge">
<title>Node0&#45;&gt;Node9</title>
<g id="a_edge34_Node000000_Node000009"><a xlink:title=" ">
<path fill="none" stroke="#63b8ff" d="M70.73,-720.02C79.98,-801.8 112.84,-1055.19 170,-1110.5 177.63,-1117.88 187.48,-1122.58 197.77,-1125.49"/>
<polygon fill="#63b8ff" stroke="#63b8ff" points="74.16,-719.21 69.58,-709.66 67.2,-719.99 74.16,-719.21"/>
</a>
</g>
</g>
<!-- Node10 -->
<g id="Node000010" class="node">
<title>Node10</title>
<g id="a_Node000010"><a xlink:href="structcpstd_1_1is__const_3_01const_01T_01_4.html" target="_top" xlink:title=" ">
<polygon fill="white" stroke="#666666" points="329.5,-1101 183.5,-1101 183.5,-1082 329.5,-1082 329.5,-1101"/>
<text text-anchor="middle" x="256.5" y="-1089" font-family="Helvetica,sans-Serif" font-size="10.00">cpstd::is_const&lt; const T &gt;</text>
</a>
</g>
</g>
<!-- Node0&#45;&gt;Node10 -->
<g id="edge35_Node000000_Node000010" class="edge">
<title>Node0&#45;&gt;Node10</title>
<g id="a_edge35_Node000000_Node000010"><a xlink:title=" ">
<path fill="none" stroke="#63b8ff" d="M71.34,-719.76C81.99,-796.37 117.51,-1023.84 170,-1073.5 173.97,-1077.25 178.51,-1080.31 183.39,-1082.78"/>
<polygon fill="#63b8ff" stroke="#63b8ff" points="74.78,-719.03 69.95,-709.6 67.84,-719.98 74.78,-719.03"/>
</a>
</g>
</g>
<!-- Node11 -->
<g id="Node000011" class="node">
<title>Node11</title>
<g id="a_Node000011"><a xlink:href="structcpstd_1_1is__enum.html" target="_top" xlink:title=" ">
<polygon fill="white" stroke="#666666" points="316,-1064 197,-1064 197,-1045 316,-1045 316,-1064"/>
<text text-anchor="middle" x="256.5" y="-1052" font-family="Helvetica,sans-Serif" font-size="10.00">cpstd::is_enum&lt; T &gt;</text>
</a>
</g>
</g>
<!-- Node0&#45;&gt;Node11 -->
<g id="edge36_Node000000_Node000011" class="edge">
<title>Node0&#45;&gt;Node11</title>
<g id="a_edge36_Node000000_Node000011"><a xlink:title=" ">
<path fill="none" stroke="#63b8ff" d="M67.49,-720.14C67.71,-783.69 77.61,-949.53 170,-1035.5 177.46,-1042.44 186.87,-1047.05 196.7,-1050.07"/>
<polygon fill="#63b8ff" stroke="#63b8ff" points="70.99,-719.86 67.54,-709.84 63.99,-719.82 70.99,-719.86"/>
</a>
</g>
</g>
<!-- Node12 -->
<g id="Node000012" class="node">
<title>Node12</title>
<g id="a_Node000012"><a xlink:href="structcpstd_1_1is__floating__point.html" target="_top" xlink:title=" ">
<polygon fill="white" stroke="#666666" points="306,-1026.5 207,-1026.5 207,-996.5 306,-996.5 306,-1026.5"/>
<text text-anchor="start" x="215" y="-1014.5" font-family="Helvetica,sans-Serif" font-size="10.00">cpstd::is_floating</text>
<text text-anchor="middle" x="256.5" y="-1003.5" font-family="Helvetica,sans-Serif" font-size="10.00">_point&lt; T &gt;</text>
</a>
</g>
</g>
<!-- Node0&#45;&gt;Node12 -->
<g id="edge37_Node000000_Node000012" class="edge">
<title>Node0&#45;&gt;Node12</title>
<g id="a_edge37_Node000000_Node000012"><a xlink:title=" ">
<path fill="none" stroke="#63b8ff" d="M69.35,-719.95C73.73,-776.35 92.25,-912.66 170,-986.5 179.98,-995.98 193.36,-1001.89 206.56,-1005.56"/>
<polygon fill="#63b8ff" stroke="#63b8ff" points="72.83,-719.52 68.65,-709.78 65.84,-720 72.83,-719.52"/>
</a>
</g>
</g>
<!-- Node13 -->
<g id="Node000013" class="node">
<title>Node13</title>
<g id="a_Node000013"><a xlink:href="structcpstd_1_1is__function.html" target="_top" xlink:title=" ">
<polygon fill="white" stroke="#666666" points="322,-978 191,-978 191,-959 322,-959 322,-978"/>
<text text-anchor="middle" x="256.5" y="-966" font-family="Helvetica,sans-Serif" font-size="10.00">cpstd::is_function&lt; T &gt;</text>
</a>
</g>
</g>
<!-- Node0&#45;&gt;Node13 -->
<g id="edge38_Node000000_Node000013" class="edge">
<title>Node0&#45;&gt;Node13</title>
<g id="a_edge38_Node000000_Node000013"><a xlink:title=" ">
<path fill="none" stroke="#63b8ff" d="M70.44,-719.9C76.81,-771.52 98.75,-888.94 170,-949.5 176.02,-954.62 183.13,-958.45 190.63,-961.29"/>
<polygon fill="#63b8ff" stroke="#63b8ff" points="73.88,-719.18 69.27,-709.64 66.92,-719.97 73.88,-719.18"/>
</a>
</g>
</g>
<!-- Node15 -->
<g id="Node000015" class="node">
<title>Node15</title>
<g id="a_Node000015"><a xlink:href="structcpstd_1_1is__function_3_01Ret_07Args_8_8_8_08_01const_01_4.html" target="_top" xlink:title=" ">
<polygon fill="white" stroke="#666666" points="318,-940.5 195,-940.5 195,-910.5 318,-910.5 318,-940.5"/>
<text text-anchor="start" x="203" y="-928.5" font-family="Helvetica,sans-Serif" font-size="10.00">cpstd::is_function</text>
<text text-anchor="middle" x="256.5" y="-917.5" font-family="Helvetica,sans-Serif" font-size="10.00">&lt; Ret(Args...) const &gt;</text>
</a>
</g>
</g>
<!-- Node0&#45;&gt;Node15 -->
<g id="edge40_Node000000_Node000015" class="edge">
<title>Node0&#45;&gt;Node15</title>
<g id="a_edge40_Node000000_Node000015"><a xlink:title=" ">
<path fill="none" stroke="#63b8ff" d="M73.43,-719.5C84.15,-762.87 112.21,-852.04 170,-900.5 177.23,-906.56 185.87,-911.15 194.83,-914.63"/>
<polygon fill="#63b8ff" stroke="#63b8ff" points="76.77,-718.44 71.07,-709.51 69.96,-720.05 76.77,-718.44"/>
</a>
</g>
</g>
<!-- Node16 -->
<g id="Node000016" class="node">
<title>Node16</title>
<g id="a_Node000016"><a xlink:href="structcpstd_1_1is__function_3_01Ret_07Args_8_8_8_08_01const_01volatile_01_4.html" target="_top" xlink:title=" ">
<polygon fill="white" stroke="#666666" points="312.5,-892 200.5,-892 200.5,-851 312.5,-851 312.5,-892"/>
<text text-anchor="start" x="208.5" y="-880" font-family="Helvetica,sans-Serif" font-size="10.00">cpstd::is_function</text>
<text text-anchor="start" x="208.5" y="-869" font-family="Helvetica,sans-Serif" font-size="10.00">&lt; Ret(Args...) const</text>
<text text-anchor="middle" x="256.5" y="-858" font-family="Helvetica,sans-Serif" font-size="10.00"> volatile &gt;</text>
</a>
</g>
</g>
<!-- Node0&#45;&gt;Node16 -->
<g id="edge41_Node000000_Node000016" class="edge">
<title>Node0&#45;&gt;Node16</title>
<g id="a_edge41_Node000000_Node000016"><a xlink:title=" ">
<path fill="none" stroke="#63b8ff" d="M78.96,-718.99C94.67,-751.44 126.55,-808.41 170,-841.5 179.01,-848.36 189.72,-853.74 200.45,-857.92"/>
<polygon fill="#63b8ff" stroke="#63b8ff" points="82.04,-717.32 74.61,-709.77 75.71,-720.3 82.04,-717.32"/>
</a>
</g>
</g>
<!-- Node17 -->
<g id="Node000017" class="node">
<title>Node17</title>
<g id="a_Node000017"><a xlink:href="structcpstd_1_1is__function_3_01Ret_07Args_8_8_8_08_01volatile_01_4.html" target="_top" xlink:title=" ">
<polygon fill="white" stroke="#666666" points="323.5,-832.5 189.5,-832.5 189.5,-802.5 323.5,-802.5 323.5,-832.5"/>
<text text-anchor="start" x="197.5" y="-820.5" font-family="Helvetica,sans-Serif" font-size="10.00">cpstd::is_function</text>
<text text-anchor="middle" x="256.5" y="-809.5" font-family="Helvetica,sans-Serif" font-size="10.00">&lt; Ret(Args...) volatile &gt;</text>
</a>
</g>
</g>
<!-- Node0&#45;&gt;Node17 -->
<g id="edge42_Node000000_Node000017" class="edge">
<title>Node0&#45;&gt;Node17</title>
<g id="a_edge42_Node000000_Node000017"><a xlink:title=" ">
<path fill="none" stroke="#63b8ff" d="M85.97,-717.68C104.64,-740.23 135.86,-773.86 170,-793.5 176.01,-796.96 182.56,-799.94 189.25,-802.51"/>
<polygon fill="#63b8ff" stroke="#63b8ff" points="88.47,-715.2 79.45,-709.64 83.03,-719.61 88.47,-715.2"/>
</a>
</g>
</g>
<!-- Node18 -->
<g id="Node000018" class="node">
<title>Node18</title>
<g id="a_Node000018"><a xlink:href="structcpstd_1_1is__function_3_01Ret_07Args_8_8_8_08_4.html" target="_top" xlink:title=" ">
<polygon fill="white" stroke="#666666" points="307.5,-784.5 205.5,-784.5 205.5,-754.5 307.5,-754.5 307.5,-784.5"/>
<text text-anchor="start" x="213.5" y="-772.5" font-family="Helvetica,sans-Serif" font-size="10.00">cpstd::is_function</text>
<text text-anchor="middle" x="256.5" y="-761.5" font-family="Helvetica,sans-Serif" font-size="10.00">&lt; Ret(Args...)&gt;</text>
</a>
</g>
</g>
<!-- Node0&#45;&gt;Node18 -->
<g id="edge43_Node000000_Node000018" class="edge">
<title>Node0&#45;&gt;Node18</title>
<g id="a_edge43_Node000000_Node000018"><a xlink:title=" ">
<path fill="none" stroke="#63b8ff" d="M103.64,-714.41C122.89,-724.63 147.3,-736.73 170,-745.5 181.22,-749.83 193.54,-753.75 205.25,-757.11"/>
<polygon fill="#63b8ff" stroke="#63b8ff" points="105.1,-711.23 94.64,-709.57 101.79,-717.39 105.1,-711.23"/>
</a>
</g>
</g>
<!-- Node19 -->
<g id="Node000019" class="node">
<title>Node19</title>
<g id="a_Node000019"><a xlink:href="structcpstd_1_1is__function_3_01Ret_07Args_8_8_8_00_8_8_8_08_01const_01_4.html" target="_top" xlink:title=" ">
<polygon fill="white" stroke="#666666" points="324,-736.5 189,-736.5 189,-706.5 324,-706.5 324,-736.5"/>
<text text-anchor="start" x="197" y="-724.5" font-family="Helvetica,sans-Serif" font-size="10.00">cpstd::is_function</text>
<text text-anchor="middle" x="256.5" y="-713.5" font-family="Helvetica,sans-Serif" font-size="10.00">&lt; Ret(Args...,...) const &gt;</text>
</a>
</g>
</g>
<!-- Node0&#45;&gt;Node19 -->
<g id="edge44_Node000000_Node000019" class="edge">
<title>Node0&#45;&gt;Node19</title>
<g id="a_edge44_Node000000_Node000019"><a xlink:title=" ">
<path fill="none" stroke="#63b8ff" d="M144.2,-705.47C158.95,-707.6 174.31,-709.81 188.73,-711.88"/>
<polygon fill="#63b8ff" stroke="#63b8ff" points="144.5,-701.98 134.11,-704.02 143.5,-708.91 144.5,-701.98"/>
</a>
</g>
</g>
<!-- Node20 -->
<g id="Node000020" class="node">
<title>Node20</title>
<g id="a_Node000020"><a xlink:href="structcpstd_1_1is__function_3_01Ret_07Args_8_8_8_00_8_8_8_08_01const_01volatile_01_4.html" target="_top" xlink:title=" ">
<polygon fill="white" stroke="#666666" points="318.5,-688 194.5,-688 194.5,-647 318.5,-647 318.5,-688"/>
<text text-anchor="start" x="202.5" y="-676" font-family="Helvetica,sans-Serif" font-size="10.00">cpstd::is_function</text>
<text text-anchor="start" x="202.5" y="-665" font-family="Helvetica,sans-Serif" font-size="10.00">&lt; Ret(Args...,...) const</text>
<text text-anchor="middle" x="256.5" y="-654" font-family="Helvetica,sans-Serif" font-size="10.00"> volatile &gt;</text>
</a>
</g>
</g>
<!-- Node0&#45;&gt;Node20 -->
<g id="edge45_Node000000_Node000020" class="edge">
<title>Node0&#45;&gt;Node20</title>
<g id="a_edge45_Node000000_Node000020"><a xlink:title=" ">
<path fill="none" stroke="#63b8ff" d="M144.35,-683.5C161,-681.11 178.41,-678.6 194.38,-676.3"/>
<polygon fill="#63b8ff" stroke="#63b8ff" points="143.5,-680.09 134.11,-684.98 144.5,-687.02 143.5,-680.09"/>
</a>
</g>
</g>
<!-- Node21 -->
<g id="Node000021" class="node">
<title>Node21</title>
<g id="a_Node000021"><a xlink:href="structcpstd_1_1is__function_3_01Ret_07Args_8_8_8_00_8_8_8_08_01volatile_01_4.html" target="_top" xlink:title=" ">
<polygon fill="white" stroke="#666666" points="329.5,-628.5 183.5,-628.5 183.5,-598.5 329.5,-598.5 329.5,-628.5"/>
<text text-anchor="start" x="191.5" y="-616.5" font-family="Helvetica,sans-Serif" font-size="10.00">cpstd::is_function</text>
<text text-anchor="middle" x="256.5" y="-605.5" font-family="Helvetica,sans-Serif" font-size="10.00">&lt; Ret(Args...,...) volatile &gt;</text>
</a>
</g>
</g>
<!-- Node0&#45;&gt;Node21 -->
<g id="edge46_Node000000_Node000021" class="edge">
<title>Node0&#45;&gt;Node21</title>
<g id="a_edge46_Node000000_Node000021"><a xlink:title=" ">
<path fill="none" stroke="#63b8ff" d="M99.66,-674.24C119.33,-662.32 145.45,-647.64 170,-637.5 177.98,-634.2 186.56,-631.2 195.1,-628.52"/>
<polygon fill="#63b8ff" stroke="#63b8ff" points="97.8,-671.28 91.11,-679.5 101.46,-677.24 97.8,-671.28"/>
</a>
</g>
</g>
<!-- Node22 -->
<g id="Node000022" class="node">
<title>Node22</title>
<g id="a_Node000022"><a xlink:href="structcpstd_1_1is__function_3_01Ret_07Args_8_8_8_00_8_8_8_08_4.html" target="_top" xlink:title=" ">
<polygon fill="white" stroke="#666666" points="308,-580.5 205,-580.5 205,-550.5 308,-550.5 308,-580.5"/>
<text text-anchor="start" x="213" y="-568.5" font-family="Helvetica,sans-Serif" font-size="10.00">cpstd::is_function</text>
<text text-anchor="middle" x="256.5" y="-557.5" font-family="Helvetica,sans-Serif" font-size="10.00">&lt; Ret(Args...,...)&gt;</text>
</a>
</g>
</g>
<!-- Node0&#45;&gt;Node22 -->
<g id="edge47_Node000000_Node000022" class="edge">
<title>Node0&#45;&gt;Node22</title>
<g id="a_edge47_Node000000_Node000022"><a xlink:title=" ">
<path fill="none" stroke="#63b8ff" d="M84.81,-670.98C103.13,-647.05 134.6,-610.57 170,-589.5 180.6,-583.19 192.92,-578.48 204.86,-574.99"/>
<polygon fill="#63b8ff" stroke="#63b8ff" points="81.87,-669.08 78.68,-679.18 87.47,-673.27 81.87,-669.08"/>
</a>
</g>
</g>
<!-- Node23 -->
<g id="Node000023" class="node">
<title>Node23</title>
<g id="a_Node000023"><a xlink:href="structcpstd_1_1is__integral.html" target="_top" xlink:title=" ">
<polygon fill="white" stroke="#666666" points="320.5,-532 192.5,-532 192.5,-513 320.5,-513 320.5,-532"/>
<text text-anchor="middle" x="256.5" y="-520" font-family="Helvetica,sans-Serif" font-size="10.00">cpstd::is_integral&lt; T &gt;</text>
</a>
</g>
</g>
<!-- Node0&#45;&gt;Node23 -->
<g id="edge48_Node000000_Node000023" class="edge">
<title>Node0&#45;&gt;Node23</title>
<g id="a_edge48_Node000000_Node000023"><a xlink:title=" ">
<path fill="none" stroke="#63b8ff" d="M77.49,-669.72C91.99,-635.31 123.02,-573.69 170,-541.5 176.77,-536.86 184.49,-533.33 192.46,-530.65"/>
<polygon fill="#63b8ff" stroke="#63b8ff" points="74.21,-668.47 73.68,-679.05 80.69,-671.12 74.21,-668.47"/>
</a>
</g>
</g>
<!-- Node24 -->
<g id="Node000024" class="node">
<title>Node24</title>
<g id="a_Node000024"><a xlink:href="structcpstd_1_1is__lvalue__reference.html" target="_top" xlink:title=" ">
<polygon fill="white" stroke="#666666" points="343,-495 170,-495 170,-476 343,-476 343,-495"/>
<text text-anchor="middle" x="256.5" y="-483" font-family="Helvetica,sans-Serif" font-size="10.00">cpstd::is_lvalue_reference&lt; T &gt;</text>
</a>
</g>
</g>
<!-- Node0&#45;&gt;Node24 -->
<g id="edge49_Node000000_Node000024" class="edge">
<title>Node0&#45;&gt;Node24</title>
<g id="a_edge49_Node000000_Node000024"><a xlink:title=" ">
<path fill="none" stroke="#63b8ff" d="M73.95,-669.69C85.21,-628.34 113.72,-545.75 170,-503.5 174.49,-500.13 179.47,-497.36 184.7,-495.08"/>
<polygon fill="#63b8ff" stroke="#63b8ff" points="70.53,-668.93 71.39,-679.49 77.3,-670.7 70.53,-668.93"/>
</a>
</g>
</g>
<!-- Node25 -->
<g id="Node000025" class="node">
<title>Node25</title>
<g id="a_Node000025"><a xlink:href="structcpstd_1_1is__lvalue__reference_3_01T_01_6_01_4.html" target="_top" xlink:title=" ">
<polygon fill="white" stroke="#666666" points="328.5,-457.5 184.5,-457.5 184.5,-427.5 328.5,-427.5 328.5,-457.5"/>
<text text-anchor="start" x="192.5" y="-445.5" font-family="Helvetica,sans-Serif" font-size="10.00">cpstd::is_lvalue_reference</text>
<text text-anchor="middle" x="256.5" y="-434.5" font-family="Helvetica,sans-Serif" font-size="10.00">&lt; T &amp; &gt;</text>
</a>
</g>
</g>
<!-- Node0&#45;&gt;Node25 -->
<g id="edge50_Node000000_Node000025" class="edge">
<title>Node0&#45;&gt;Node25</title>
<g id="a_edge50_Node000000_Node000025"><a xlink:title=" ">
<path fill="none" stroke="#63b8ff" d="M72.05,-669.44C80.97,-622.48 106.8,-521.03 170,-466.5 174.32,-462.77 179.18,-459.62 184.32,-456.96"/>
<polygon fill="#63b8ff" stroke="#63b8ff" points="68.59,-668.92 70.26,-679.38 75.48,-670.16 68.59,-668.92"/>
</a>
</g>
</g>
<!-- Node26 -->
<g id="Node000026" class="node">
<title>Node26</title>
<g id="a_Node000026"><a xlink:href="structcpstd_1_1is__member__function__pointer.html" target="_top" xlink:title=" ">
<polygon fill="white" stroke="#666666" points="331,-409.5 182,-409.5 182,-379.5 331,-379.5 331,-409.5"/>
<text text-anchor="start" x="190" y="-397.5" font-family="Helvetica,sans-Serif" font-size="10.00">cpstd::is_member_function</text>
<text text-anchor="middle" x="256.5" y="-386.5" font-family="Helvetica,sans-Serif" font-size="10.00">_pointer&lt; T &gt;</text>
</a>
</g>
</g>
<!-- Node0&#45;&gt;Node26 -->
<g id="edge51_Node000000_Node000026" class="edge">
<title>Node0&#45;&gt;Node26</title>
<g id="a_edge51_Node000000_Node000026"><a xlink:title=" ">
<path fill="none" stroke="#63b8ff" d="M69.86,-669.26C75.23,-615.12 95.54,-487.21 170,-418.5 173.74,-415.05 177.94,-412.09 182.41,-409.55"/>
<polygon fill="#63b8ff" stroke="#63b8ff" points="66.36,-669.08 68.95,-679.35 73.33,-669.71 66.36,-669.08"/>
</a>
</g>
</g>
<!-- Node27 -->
<g id="Node000027" class="node">
<title>Node27</title>
<g id="a_Node000027"><a xlink:href="structcpstd_1_1is__member__object__pointer.html" target="_top" xlink:title=" ">
<polygon fill="white" stroke="#666666" points="326,-361.5 187,-361.5 187,-331.5 326,-331.5 326,-361.5"/>
<text text-anchor="start" x="195" y="-349.5" font-family="Helvetica,sans-Serif" font-size="10.00">cpstd::is_member_object</text>
<text text-anchor="middle" x="256.5" y="-338.5" font-family="Helvetica,sans-Serif" font-size="10.00">_pointer&lt; T &gt;</text>
</a>
</g>
</g>
<!-- Node0&#45;&gt;Node27 -->
<g id="edge52_Node000000_Node000027" class="edge">
<title>Node0&#45;&gt;Node27</title>
<g id="a_edge52_Node000000_Node000027"><a xlink:title=" ">
<path fill="none" stroke="#63b8ff" d="M68.26,-669.19C70.28,-608.53 84.09,-453.76 170,-370.5 174.87,-365.78 180.59,-361.97 186.73,-358.9"/>
<polygon fill="#63b8ff" stroke="#63b8ff" points="64.75,-669.29 68,-679.38 71.75,-669.47 64.75,-669.29"/>
</a>
</g>
</g>
<!-- Node28 -->
<g id="Node000028" class="node">
<title>Node28</title>
<g id="a_Node000028"><a xlink:href="structcpstd_1_1is__member__object__pointer_3_01T_01C_1_1_5_01_4.html" target="_top" xlink:title=" ">
<polygon fill="white" stroke="#666666" points="326,-313.5 187,-313.5 187,-283.5 326,-283.5 326,-313.5"/>
<text text-anchor="start" x="195" y="-301.5" font-family="Helvetica,sans-Serif" font-size="10.00">cpstd::is_member_object</text>
<text text-anchor="middle" x="256.5" y="-290.5" font-family="Helvetica,sans-Serif" font-size="10.00">_pointer&lt; T C::* &gt;</text>
</a>
</g>
</g>
<!-- Node0&#45;&gt;Node28 -->
<g id="edge53_Node000000_Node000028" class="edge">
<title>Node0&#45;&gt;Node28</title>
<g id="a_edge53_Node000000_Node000028"><a xlink:title=" ">
<path fill="none" stroke="#63b8ff" d="M71.63,-669.34C82.99,-594.07 120.05,-372.75 170,-322.5 174.89,-317.58 180.7,-313.65 186.96,-310.51"/>
<polygon fill="#63b8ff" stroke="#63b8ff" points="68.15,-668.94 70.15,-679.35 75.08,-669.97 68.15,-668.94"/>
</a>
</g>
</g>
<!-- Node29 -->
<g id="Node000029" class="node">
<title>Node29</title>
<g id="a_Node000029"><a xlink:href="structcpstd_1_1is__pointer__helper.html" target="_top" xlink:title=" ">
<polygon fill="white" stroke="#666666" points="337,-265 176,-265 176,-246 337,-246 337,-265"/>
<text text-anchor="middle" x="256.5" y="-253" font-family="Helvetica,sans-Serif" font-size="10.00">cpstd::is_pointer_helper&lt; T &gt;</text>
</a>
</g>
</g>
<!-- Node0&#45;&gt;Node29 -->
<g id="edge54_Node000000_Node000029" class="edge">
<title>Node0&#45;&gt;Node29</title>
<g id="a_edge54_Node000000_Node000029"><a xlink:title=" ">
<path fill="none" stroke="#63b8ff" d="M70.66,-669.27C79.8,-587.33 112.57,-330.81 170,-274.5 173.8,-270.77 178.16,-267.71 182.85,-265.2"/>
<polygon fill="#63b8ff" stroke="#63b8ff" points="67.18,-668.89 69.57,-679.21 74.14,-669.65 67.18,-668.89"/>
</a>
</g>
</g>
<!-- Node30 -->
<g id="Node000030" class="node">
<title>Node30</title>
<g id="a_Node000030"><a xlink:href="structcpstd_1_1is__pointer__helper_3_01T_01_5_01_4.html" target="_top" xlink:title=" ">
<polygon fill="white" stroke="#666666" points="323,-227.5 190,-227.5 190,-197.5 323,-197.5 323,-227.5"/>
<text text-anchor="start" x="198" y="-215.5" font-family="Helvetica,sans-Serif" font-size="10.00">cpstd::is_pointer_helper</text>
<text text-anchor="middle" x="256.5" y="-204.5" font-family="Helvetica,sans-Serif" font-size="10.00">&lt; T * &gt;</text>
</a>
</g>
</g>
<!-- Node0&#45;&gt;Node30 -->
<g id="edge55_Node000000_Node000030" class="edge">
<title>Node0&#45;&gt;Node30</title>
<g id="a_edge55_Node000000_Node000030"><a xlink:title=" ">
<path fill="none" stroke="#63b8ff" d="M70.26,-669.17C78.47,-582.6 109.5,-300.39 170,-236.5 175.51,-230.68 182.31,-226.23 189.65,-222.84"/>
<polygon fill="#63b8ff" stroke="#63b8ff" points="66.75,-669.11 69.31,-679.39 73.72,-669.75 66.75,-669.11"/>
</a>
</g>
</g>
<!-- Node31 -->
<g id="Node000031" class="node">
<title>Node31</title>
<g id="a_Node000031"><a xlink:href="structcpstd_1_1is__rvalue__reference.html" target="_top" xlink:title=" ">
<polygon fill="white" stroke="#666666" points="343,-179 170,-179 170,-160 343,-160 343,-179"/>
<text text-anchor="middle" x="256.5" y="-167" font-family="Helvetica,sans-Serif" font-size="10.00">cpstd::is_rvalue_reference&lt; T &gt;</text>
</a>
</g>
</g>
<!-- Node0&#45;&gt;Node31 -->
<g id="edge56_Node000000_Node000031" class="edge">
<title>Node0&#45;&gt;Node31</title>
<g id="a_edge56_Node000000_Node000031"><a xlink:title=" ">
<path fill="none" stroke="#63b8ff" d="M69.54,-669.14C75.7,-576.52 101.57,-258.29 170,-188.5 173.73,-184.7 178.03,-181.58 182.69,-179.04"/>
<polygon fill="#63b8ff" stroke="#63b8ff" points="66.04,-669.08 68.89,-679.29 73.03,-669.53 66.04,-669.08"/>
</a>
</g>
</g>
<!-- Node32 -->
<g id="Node000032" class="node">
<title>Node32</title>
<g id="a_Node000032"><a xlink:href="structcpstd_1_1is__rvalue__reference_3_01T_01_6_6_01_4.html" target="_top" xlink:title=" ">
<polygon fill="white" stroke="#666666" points="329,-141.5 184,-141.5 184,-111.5 329,-111.5 329,-141.5"/>
<text text-anchor="start" x="192" y="-129.5" font-family="Helvetica,sans-Serif" font-size="10.00">cpstd::is_rvalue_reference</text>
<text text-anchor="middle" x="256.5" y="-118.5" font-family="Helvetica,sans-Serif" font-size="10.00">&lt; T &amp;&amp; &gt;</text>
</a>
</g>
</g>
<!-- Node0&#45;&gt;Node32 -->
<g id="edge57_Node000000_Node000032" class="edge">
<title>Node0&#45;&gt;Node32</title>
<g id="a_edge57_Node000000_Node000032"><a xlink:title=" ">
<path fill="none" stroke="#63b8ff" d="M69.28,-669.27C74.7,-572.74 98.78,-228.3 170,-150.5 173.96,-146.18 178.62,-142.61 183.7,-139.67"/>
<polygon fill="#63b8ff" stroke="#63b8ff" points="65.79,-669.12 68.74,-679.3 72.78,-669.5 65.79,-669.12"/>
</a>
</g>
</g>
<!-- Node33 -->
<g id="Node000033" class="node">
<title>Node33</title>
<g id="a_Node000033"><a xlink:href="structcpstd_1_1is__same.html" target="_top" xlink:title=" ">
<polygon fill="white" stroke="#666666" points="322,-93 191,-93 191,-74 322,-74 322,-93"/>
<text text-anchor="middle" x="256.5" y="-81" font-family="Helvetica,sans-Serif" font-size="10.00">cpstd::is_same&lt; T, U &gt;</text>
</a>
</g>
</g>
<!-- Node0&#45;&gt;Node33 -->
<g id="edge58_Node000000_Node000033" class="edge">
<title>Node0&#45;&gt;Node33</title>
<g id="a_edge58_Node000000_Node000033"><a xlink:title=" ">
<path fill="none" stroke="#63b8ff" d="M68.73,-669.27C72.21,-567.16 90.42,-185.99 170,-102.5 175.77,-96.45 183.01,-92.12 190.81,-89.05"/>
<polygon fill="#63b8ff" stroke="#63b8ff" points="65.23,-669.19 68.41,-679.29 72.23,-669.41 65.23,-669.19"/>
</a>
</g>
</g>
<!-- Node34 -->
<g id="Node000034" class="node">
<title>Node34</title>
<g id="a_Node000034"><a xlink:href="structcpstd_1_1is__same_3_01T_00_01T_01_4.html" target="_top" xlink:title=" ">
<polygon fill="white" stroke="#666666" points="321.5,-56 191.5,-56 191.5,-37 321.5,-37 321.5,-56"/>
<text text-anchor="middle" x="256.5" y="-44" font-family="Helvetica,sans-Serif" font-size="10.00">cpstd::is_same&lt; T, T &gt;</text>
</a>
</g>
</g>
<!-- Node0&#45;&gt;Node34 -->
<g id="edge59_Node000000_Node000034" class="edge">
<title>Node0&#45;&gt;Node34</title>
<g id="a_edge59_Node000000_Node000034"><a xlink:title=" ">
<path fill="none" stroke="#63b8ff" d="M68.42,-669.37C70.69,-563.3 84.96,-153.64 170,-64.5 175.86,-58.35 183.25,-54.04 191.22,-51.04"/>
<polygon fill="#63b8ff" stroke="#63b8ff" points="64.91,-669.39 68.22,-679.46 71.91,-669.53 64.91,-669.39"/>
</a>
</g>
</g>
<!-- Node35 -->
<g id="Node000035" class="node">
<title>Node35</title>
<g id="a_Node000035"><a xlink:href="structcpstd_1_1is__union.html" target="_top" xlink:title=" ">
<polygon fill="white" stroke="#666666" points="315.5,-19 197.5,-19 197.5,0 315.5,0 315.5,-19"/>
<text text-anchor="middle" x="256.5" y="-7" font-family="Helvetica,sans-Serif" font-size="10.00">cpstd::is_union&lt; T &gt;</text>
</a>
</g>
</g>
<!-- Node0&#45;&gt;Node35 -->
<g id="edge60_Node000000_Node000035" class="edge">
<title>Node0&#45;&gt;Node35</title>
<g id="a_edge60_Node000000_Node000035"><a xlink:title=" ">
<path fill="none" stroke="#63b8ff" d="M68.17,-669.33C69.43,-559.38 80.12,-122.54 170,-27.5 177.3,-19.79 186.99,-14.94 197.24,-11.98"/>
<polygon fill="#63b8ff" stroke="#63b8ff" points="64.67,-669.44 68.07,-679.47 71.67,-669.51 64.67,-669.44"/>
</a>
</g>
</g>
<!-- Node2 -->
<g id="Node000002" class="node">
<title>Node2</title>
<g id="a_Node000002"><a xlink:href="structcpstd_1_1is__pointer.html" target="_top" xlink:title=" ">
<polygon fill="white" stroke="#666666" points="516,-1393 391,-1393 391,-1374 516,-1374 516,-1393"/>
<text text-anchor="middle" x="453.5" y="-1381" font-family="Helvetica,sans-Serif" font-size="10.00">cpstd::is_pointer&lt; T &gt;</text>
</a>
</g>
</g>
<!-- Node1&#45;&gt;Node2 -->
<g id="edge27_Node000001_Node000002" class="edge">
<title>Node1&#45;&gt;Node2</title>
<g id="a_edge27_Node000001_Node000002"><a xlink:title=" ">
<path fill="none" stroke="#63b8ff" d="M338.38,-1383.5C355.89,-1383.5 374.14,-1383.5 390.77,-1383.5"/>
<polygon fill="#63b8ff" stroke="#63b8ff" points="338.18,-1380 328.18,-1383.5 338.18,-1387 338.18,-1380"/>
</a>
</g>
</g>
<!-- Node4 -->
<g id="Node000004" class="node">
<title>Node4</title>
<g id="a_Node000004"><a xlink:href="structcpstd_1_1is__void.html" target="_top" xlink:title=" ">
<polygon fill="white" stroke="#666666" points="509.5,-1334 397.5,-1334 397.5,-1315 509.5,-1315 509.5,-1334"/>
<text text-anchor="middle" x="453.5" y="-1322" font-family="Helvetica,sans-Serif" font-size="10.00">cpstd::is_void&lt; T &gt;</text>
</a>
</g>
</g>
<!-- Node3&#45;&gt;Node4 -->
<g id="edge29_Node000003_Node000004" class="edge">
<title>Node3&#45;&gt;Node4</title>
<g id="a_edge29_Node000003_Node000004"><a xlink:title=" ">
<path fill="none" stroke="#63b8ff" d="M329.38,-1324.5C351.87,-1324.5 376.33,-1324.5 397.47,-1324.5"/>
<polygon fill="#63b8ff" stroke="#63b8ff" points="329.2,-1321 319.2,-1324.5 329.2,-1328 329.2,-1321"/>
</a>
</g>
</g>
<!-- Node14 -->
<g id="Node000014" class="node">
<title>Node14</title>
<g id="a_Node000014"><a xlink:href="structcpstd_1_1is__member__function__pointer_3_01T_01C_1_1_5_01_4.html" target="_top" xlink:title=" ">
<polygon fill="white" stroke="#666666" points="528,-983.5 379,-983.5 379,-953.5 528,-953.5 528,-983.5"/>
<text text-anchor="start" x="387" y="-971.5" font-family="Helvetica,sans-Serif" font-size="10.00">cpstd::is_member_function</text>
<text text-anchor="middle" x="453.5" y="-960.5" font-family="Helvetica,sans-Serif" font-size="10.00">_pointer&lt; T C::* &gt;</text>
</a>
</g>
</g>
<!-- Node13&#45;&gt;Node14 -->
<g id="edge39_Node000013_Node000014" class="edge">
<title>Node13&#45;&gt;Node14</title>
<g id="a_edge39_Node000013_Node000014"><a xlink:title=" ">
<path fill="none" stroke="#63b8ff" d="M332.55,-968.5C347.76,-968.5 363.75,-968.5 378.91,-968.5"/>
<polygon fill="#63b8ff" stroke="#63b8ff" points="332.16,-965 322.16,-968.5 332.16,-972 332.16,-965"/>
</a>
</g>
</g>
</g>
</svg>
