<?xml version="1.0" encoding="UTF-8" standalone="no"?>
<!DOCTYPE svg PUBLIC "-//W3C//DTD SVG 1.1//EN"
 "http://www.w3.org/Graphics/SVG/1.1/DTD/svg11.dtd">
<!-- Generated by graphviz version 2.43.0 (0)
 -->
<!-- Title: cpstd::is_pointer&lt; T &gt; Pages: 1 -->
<svg width="151pt" height="159pt"
 viewBox="0.00 0.00 151.00 159.00" xmlns="http://www.w3.org/2000/svg" xmlns:xlink="http://www.w3.org/1999/xlink">
<g id="graph0" class="graph" transform="scale(1 1) rotate(0) translate(4 155)">
<title>cpstd::is_pointer&lt; T &gt;</title>
<!-- Node1 -->
<g id="Node000001" class="node">
<title>Node1</title>
<g id="a_Node000001"><a xlink:title=" ">
<polygon fill="#999999" stroke="#666666" points="134,-19 9,-19 9,0 134,0 134,-19"/>
<text text-anchor="middle" x="71.5" y="-7" font-family="Helvetica,sans-Serif" font-size="10.00">cpstd::is_pointer&lt; T &gt;</text>
</a>
</g>
</g>
<!-- Node2 -->
<g id="Node000002" class="node">
<title>Node2</title>
<g id="a_Node000002"><a xlink:href="structcpstd_1_1is__pointer__helper.html" target="_top" xlink:title=" ">
<polygon fill="white" stroke="#bfbfbf" points="143,-96 0,-96 0,-55 143,-55 143,-96"/>
<text text-anchor="start" x="8" y="-84" font-family="Helvetica,sans-Serif" font-size="10.00">cpstd::is_pointer_helper</text>
<text text-anchor="start" x="8" y="-73" font-family="Helvetica,sans-Serif" font-size="10.00">&lt; cpstd::remove_cv&lt; T &gt;</text>
<text text-anchor="middle" x="71.5" y="-62" font-family="Helvetica,sans-Serif" font-size="10.00">::type &gt;</text>
</a>
</g>
</g>
<!-- Node2&#45;&gt;Node1 -->
<g id="edge1_Node000001_Node000002" class="edge">
<title>Node2&#45;&gt;Node1</title>
<g id="a_edge1_Node000001_Node000002"><a xlink:title=" ">
<path fill="none" stroke="#63b8ff" d="M71.5,-44.74C71.5,-35.45 71.5,-25.9 71.5,-19.26"/>
<polygon fill="#63b8ff" stroke="#63b8ff" points="68,-44.95 71.5,-54.95 75,-44.95 68,-44.95"/>
</a>
</g>
</g>
<!-- Node3 -->
<g id="Node000003" class="node">
<title>Node3</title>
<g id="a_Node000003"><a xlink:href="structcpstd_1_1integral__constant.html" target="_top" xlink:title=" ">
<polygon fill="white" stroke="#bfbfbf" points="121.5,-151 21.5,-151 21.5,-132 121.5,-132 121.5,-151"/>
<text text-anchor="middle" x="71.5" y="-139" font-family="Helvetica,sans-Serif" font-size="10.00">cpstd::false_type</text>
</a>
</g>
</g>
<!-- Node3&#45;&gt;Node2 -->
<g id="edge2_Node000002_Node000003" class="edge">
<title>Node3&#45;&gt;Node2</title>
<g id="a_edge2_Node000002_Node000003"><a xlink:title=" ">
<path fill="none" stroke="#63b8ff" d="M71.5,-121.63C71.5,-113.56 71.5,-104.15 71.5,-96.01"/>
<polygon fill="#63b8ff" stroke="#63b8ff" points="68,-121.87 71.5,-131.87 75,-121.87 68,-121.87"/>
</a>
</g>
</g>
</g>
</svg>
